<svg width="17" height="17" viewBox="0 0 17 17" fill="none" xmlns="http://www.w3.org/2000/svg">
<g opacity="0.5">
<path d="M5 2.5H3C2.60218 2.5 2.22064 2.65804 1.93934 2.93934C1.65804 3.22064 1.5 3.60218 1.5 4V8.5M14.5 11V14C14.5 14.3978 14.342 14.7794 14.0607 15.0607C13.7794 15.342 13.3978 15.5 13 15.5H9.5" stroke="white" stroke-opacity="0.95" stroke-linecap="round"/>
<path d="M12.536 1.29102C12.5484 1.2779 12.5642 1.26839 12.5816 1.2635C12.599 1.25861 12.6173 1.25852 12.6348 1.26324C12.6522 1.26795 12.668 1.2773 12.6806 1.2903C12.6931 1.30329 12.7019 1.31943 12.706 1.33702L13.403 4.36702C13.4077 4.38666 13.4181 4.40443 13.433 4.41802L15.709 6.53602C15.7221 6.54843 15.7317 6.56417 15.7365 6.58156C15.7414 6.59894 15.7415 6.61733 15.7368 6.63476C15.7321 6.65219 15.7227 6.66802 15.7098 6.68057C15.6968 6.69312 15.6806 6.70191 15.663 6.70602L12.633 7.40302C12.6134 7.40765 12.5956 7.4181 12.582 7.43302L10.464 9.70902C10.4516 9.72213 10.4359 9.73164 10.4185 9.73653C10.4011 9.74143 10.3827 9.74152 10.3653 9.7368C10.3479 9.73208 10.332 9.72273 10.3195 9.70974C10.3069 9.69675 10.2981 9.68061 10.294 9.66302L9.59703 6.63302C9.59268 6.6135 9.58258 6.59574 9.56803 6.58202L7.29103 4.46402C7.27791 4.4516 7.26841 4.43587 7.26351 4.41848C7.25862 4.4011 7.25853 4.38271 7.26325 4.36528C7.26796 4.34784 7.27731 4.33201 7.29031 4.31947C7.3033 4.30692 7.31944 4.29813 7.33703 4.29402L10.367 3.59702C10.3865 3.59267 10.4043 3.58257 10.418 3.56802L12.536 1.29102ZM4.95103 9.62702C4.95951 9.61089 4.97224 9.59739 4.98784 9.58797C5.00343 9.57856 5.02131 9.57358 5.03953 9.57358C5.05775 9.57358 5.07562 9.57856 5.09122 9.58797C5.10682 9.59739 5.11955 9.61089 5.12803 9.62702L6.06503 11.394C6.07435 11.4114 6.08861 11.4257 6.10603 11.435L7.87303 12.372C7.88915 12.3805 7.90265 12.3932 7.91207 12.4088C7.92149 12.4244 7.92647 12.4423 7.92647 12.4605C7.92647 12.4787 7.92149 12.4966 7.91207 12.5122C7.90265 12.5278 7.88915 12.5405 7.87303 12.549L6.10603 13.486C6.08861 13.4953 6.07435 13.5096 6.06503 13.527L5.12803 15.294C5.11955 15.3101 5.10682 15.3236 5.09122 15.3331C5.07562 15.3425 5.05775 15.3475 5.03953 15.3475C5.02131 15.3475 5.00343 15.3425 4.98784 15.3331C4.97224 15.3236 4.95951 15.3101 4.95103 15.294L4.01403 13.527C4.00471 13.5096 3.99044 13.4953 3.97303 13.486L2.20603 12.549C2.1899 12.5405 2.1764 12.5278 2.16698 12.5122C2.15757 12.4966 2.15259 12.4787 2.15259 12.4605C2.15259 12.4423 2.15757 12.4244 2.16698 12.4088C2.1764 12.3932 2.1899 12.3805 2.20603 12.372L3.97303 11.435C3.99044 11.4257 4.00471 11.4114 4.01403 11.394L4.95103 9.62702Z" stroke="white" stroke-opacity="0.95"/>
</g>
</svg>
