<svg width="16" height="16" viewBox="0 0 16 16" fill="none" xmlns="http://www.w3.org/2000/svg">
<path d="M2 8C5.048 8 8 5.048 8 2C8 5.048 11.048 8 14.096 8C11.048 8 8 11.048 8 14.096C8 11.048 5.048 8 2 8Z" stroke="#9C9A92" stroke-width="1.016" stroke-linejoin="round"/>
<path d="M1.354 13.208C1.919 13.208 3.048 12.079 3.048 11.515C3.048 12.079 4.177 13.208 4.741 13.208C4.177 13.208 3.048 14.337 3.048 14.902C3.048 14.337 1.919 13.208 1.354 13.208Z" stroke="#9C9A92" stroke-width="1.016" stroke-linejoin="round"/>
<path d="M10.838 3.387C11.515 3.387 12.87 2.032 12.87 1.355C12.87 2.032 14.224 3.387 14.902 3.387C14.224 3.387 12.87 4.741 12.87 5.419C12.87 4.741 11.515 3.387 10.838 3.387Z" stroke="#9C9A92" stroke-width="1.016" stroke-linejoin="round"/>
</svg>