<svg width="17" height="17" viewBox="0 0 17 17" fill="none" xmlns="http://www.w3.org/2000/svg">
<path d="M8.445 8.093C8.794 8.093 9.118 7.953 9.766 7.674L10.234 7.472C11.387 6.976 11.964 6.727 11.964 6.334C11.964 5.94 11.387 5.692 10.234 5.195L9.766 4.993C9.118 4.714 8.794 4.574 8.445 4.574C8.096 4.574 7.772 4.714 7.124 4.993L6.656 5.195C5.503 5.692 4.926 5.94 4.926 6.334C4.926 6.727 5.503 6.976 6.656 7.472L7.124 7.674C7.772 7.953 8.096 8.093 8.445 8.093ZM8.445 8.093V12.316" stroke="white" stroke-width="1.056" stroke-linejoin="round"/>
<path d="M11.964 6.334V10.556C11.964 10.95 11.387 11.198 10.234 11.695L9.766 11.897C9.118 12.176 8.794 12.316 8.445 12.316C8.096 12.316 7.772 12.176 7.124 11.897L6.656 11.695C5.503 11.198 4.926 10.95 4.926 10.556V6.334" stroke="white" stroke-width="1.056" stroke-linejoin="round"/>
<path d="M6.435 1.759C4.565 1.802 3.473 1.981 2.727 2.727C1.981 3.473 1.802 4.565 1.759 6.435M10.455 1.759C12.325 1.802 13.417 1.981 14.163 2.727C14.909 3.473 15.088 4.565 15.131 6.435M10.455 15.131C12.325 15.088 13.417 14.909 14.163 14.163C14.909 13.417 15.088 12.325 15.131 10.455M6.435 15.131C4.565 15.088 3.473 14.909 2.727 14.163C1.981 13.417 1.802 12.325 1.759 10.455" stroke="white" stroke-width="1.056" stroke-linecap="round" stroke-linejoin="round"/>
</svg>