<svg width="32" height="32" viewBox="0 0 32 32" fill="none" xmlns="http://www.w3.org/2000/svg">
<path d="M6.95238 13.619C6.95238 13.356 6.73918 13.1428 6.47619 13.1428C6.2132 13.1428 6 13.356 6 13.619V18.3809C6 18.6439 6.2132 18.8571 6.47619 18.8571C6.73918 18.8571 6.95238 18.6439 6.95238 18.3809V13.619Z" fill="#FAF9F5"/>
<path d="M10.762 11.7142C10.762 11.4512 10.5488 11.238 10.2858 11.238C10.0228 11.238 9.80957 11.4512 9.80957 11.7142V20.2857C9.80957 20.5486 10.0228 20.7618 10.2858 20.7618C10.5488 20.7618 10.762 20.5486 10.762 20.2857V11.7142Z" fill="#FAF9F5"/>
<path d="M14.5715 8.85717C14.5715 8.59418 14.3583 8.38098 14.0953 8.38098C13.8323 8.38098 13.6191 8.59418 13.6191 8.85717V23.1429C13.6191 23.4059 13.8323 23.6191 14.0953 23.6191C14.3583 23.6191 14.5715 23.4059 14.5715 23.1429V8.85717Z" fill="#FAF9F5"/>
<path d="M18.3808 11.7142C18.3808 11.4512 18.1677 11.238 17.9047 11.238C17.6417 11.238 17.4285 11.4512 17.4285 11.7142V20.2857C17.4285 20.5486 17.6417 20.7618 17.9047 20.7618C18.1677 20.7618 18.3808 20.5486 18.3808 20.2857V11.7142Z" fill="#FAF9F5"/>
<path d="M22.1904 8.85717C22.1904 8.59418 21.9772 8.38098 21.7142 8.38098C21.4512 8.38098 21.238 8.59418 21.238 8.85717V23.1429C21.238 23.4059 21.4512 23.6191 21.7142 23.6191C21.9772 23.6191 22.1904 23.4059 22.1904 23.1429V8.85717Z" fill="#FAF9F5"/>
<path d="M26 13.619C26 13.356 25.7868 13.1428 25.5238 13.1428C25.2608 13.1428 25.0476 13.356 25.0476 13.619V18.3809C25.0476 18.6439 25.2608 18.8571 25.5238 18.8571C25.7868 18.8571 26 18.6439 26 18.3809V13.619Z" fill="#FAF9F5"/>
</svg>
