<svg preserveAspectRatio="none" width="100%" height="100%" overflow="visible" style="display: block;" viewBox="0 0 16 15.0588" fill="none" xmlns="http://www.w3.org/2000/svg">
<g id="google.svg" clip-path="url(#clip0_0_6)">
<path id="Vector" fill-rule="evenodd" clip-rule="evenodd" d="M15.2282 7.70052C15.2282 7.16662 15.1803 6.65325 15.0913 6.16041H8V9.07293H12.0522C11.8776 10.0141 11.3472 10.8116 10.5497 11.3454V13.2346H12.9831C14.4069 11.9239 15.2282 9.9936 15.2282 7.70052Z" fill="var(--fill-0, #4285F4)"/>
<path id="Vector_2" fill-rule="evenodd" clip-rule="evenodd" d="M7.99992 15.0588C10.0328 15.0588 11.7372 14.3846 12.9831 13.2346L10.5496 11.3454C9.87539 11.7972 9.01298 12.0642 7.99992 12.0642C6.03886 12.0642 4.37896 10.7397 3.78688 8.95999H1.27137V10.9108C2.5103 13.3716 5.05661 15.0588 7.99992 15.0588Z" fill="var(--fill-0, #34A853)"/>
<path id="Vector_3" fill-rule="evenodd" clip-rule="evenodd" d="M3.78696 8.96001C3.63637 8.50825 3.5508 8.02568 3.5508 7.52942C3.5508 7.03317 3.63637 6.5506 3.78696 6.09883V4.14804H1.27144C0.761497 5.16451 0.470588 6.31446 0.470588 7.52942C0.470588 8.7444 0.761497 9.89431 1.27144 10.9108L3.78696 8.96001Z" fill="var(--fill-0, #FBBC05)"/>
<path id="Vector_4" fill-rule="evenodd" clip-rule="evenodd" d="M7.99992 2.99465C9.10538 2.99465 10.0979 3.37454 10.8782 4.12064L13.0377 1.96107C11.7338 0.746096 10.0295 0 7.99992 0C5.05661 0 2.5103 1.68728 1.27137 4.14802L3.78688 6.09882C4.37896 4.31914 6.03886 2.99465 7.99992 2.99465Z" fill="var(--fill-0, #EA4335)"/>
</g>
<defs>
<clipPath id="clip0_0_6">
<rect width="16" height="15.0588" fill="white"/>
</clipPath>
</defs>
</svg>
